<?xml version="1.0" standalone="no"?>
<!DOCTYPE svg PUBLIC "-//W3C//DTD SVG 20010904//EN"
 "http://www.w3.org/TR/2001/REC-SVG-20010904/DTD/svg10.dtd">
<svg version="1.0" xmlns="http://www.w3.org/2000/svg"
 width="920.000000pt" height="512.000000pt" viewBox="0 0 920.000000 512.000000"
 preserveAspectRatio="xMidYMid meet">

<g transform="translate(0.000000,512.000000) scale(0.100000,-0.100000)"
fill="#000000" stroke="none">
<path d="M2113 4616 c-62 -28 -68 -50 -68 -248 0 -168 1 -179 21 -199 12 -12
41 -25 65 -30 24 -4 232 -8 461 -9 388 0 417 -1 422 -17 5 -16 180 -757 518
-2193 57 -244 96 -430 91 -436 -91 -122 -129 -221 -139 -357 -13 -175 48 -330
180 -463 119 -119 228 -166 384 -165 88 0 166 21 250 68 121 67 249 210 289
324 l18 49 606 0 606 0 22 -58 c50 -138 171 -275 295 -336 219 -106 460 -64
636 113 120 121 170 245 170 421 0 284 -167 507 -418 559 -187 39 -388 -16
-516 -141 l-60 -58 -734 0 -735 0 -60 66 c-33 36 -77 76 -96 88 -52 33 -138
63 -203 71 l-57 7 -8 52 -8 51 1175 5 c1171 5 1175 5 1221 26 29 13 54 35 68
57 12 20 162 454 332 964 340 1016 337 1005 288 1077 -15 23 -45 47 -79 64
l-55 27 -1752 3 -1753 2 -5 23 c-3 12 -26 119 -51 237 -52 246 -69 286 -148
335 l-49 30 -546 2 c-449 2 -552 0 -578 -11z m2028 -3349 c54 -28 104 -99 113
-159 14 -92 -41 -189 -129 -229 -162 -74 -341 85 -290 257 16 56 63 111 116
137 50 25 136 22 190 -6z m2352 -10 c66 -39 102 -103 102 -182 -1 -66 -17
-104 -61 -149 -45 -44 -83 -60 -149 -61 -113 0 -204 81 -213 191 -2 29 1 69 8
89 16 48 88 121 132 134 55 17 130 8 181 -22z"/>
</g>
</svg>
